<svg preserveAspectRatio="none" width="100%" height="100%" overflow="visible" style="display: block;" viewBox="0 0 46.6673 22.3861" fill="none" xmlns="http://www.w3.org/2000/svg">
<g id="Group 17">
<path id="Union" d="M0.859576 0V0.150391H0.50899V1.09277H0.353717V0.150391H0.000201322V0H0.859576ZM1.2668 0L1.65743 0.599609L2.04317 0H2.20919V1.09277H2.05391V0.253906L1.66524 0.848633H1.64473L1.25606 0.253906V1.09277H1.10079V0H1.2668Z" fill="var(--fill-0, white)"/>
<path id="Vector" d="M26.9749 5.48869H28.5814V15.1434H26.9749V5.48869ZM23.6308 13.9145C22.3992 13.9145 21.5398 12.9078 21.5398 11.6521C21.5398 10.3964 22.3858 9.41645 23.5505 9.41645C24.3537 9.41645 24.8732 9.77522 25.3631 10.2893L26.3538 9.21832C26.0099 8.8201 25.5801 8.50504 25.0969 8.29682C24.6137 8.08859 24.0896 7.99264 23.5639 8.01616C23.0841 8.0136 22.6086 8.10689 22.1653 8.29056C21.722 8.47422 21.3198 8.74457 20.9824 9.08573C20.645 9.42689 20.3791 9.832 20.2003 10.2773C20.0216 10.7226 19.9335 11.1991 19.9414 11.6789C19.9338 12.1555 20.0219 12.6289 20.2004 13.0709C20.379 13.513 20.6443 13.9147 20.9808 14.2524C21.3173 14.5902 21.7181 14.857 22.1594 15.0372C22.6008 15.2173 23.0738 15.3072 23.5505 15.3014C24.0955 15.3187 24.637 15.2095 25.1327 14.9823C25.6284 14.7552 26.0647 14.4163 26.4073 13.9922L25.4435 13.0417C24.9401 13.5557 24.3832 13.9145 23.6308 13.9145ZM18.675 8.16075L16.8623 13.3442L14.8784 8.16075H13.1729L16.0832 15.1434C15.8155 15.7512 15.5477 15.9467 15.0899 15.9467C14.7592 15.937 14.4362 15.845 14.1501 15.6789L13.6146 16.8677C14.1179 17.1531 14.6881 17.2991 15.2666 17.2907C16.3911 17.2907 17.0123 16.7552 17.5692 15.3335L20.3457 8.15271L18.675 8.16075ZM12.1046 5.88495L9.89304 12.7498L7.61724 5.85817H6.24373L3.96793 12.7498L1.75906 5.88495H0L3.22628 15.2104H4.62924L6.90505 8.55701L9.17817 15.2104H10.5811L13.794 5.88495H12.1046ZM46.6432 12.2224H41.5106C41.6953 13.3576 42.4879 13.9922 43.5187 13.9922C43.875 13.9942 44.2277 13.921 44.5539 13.7776C44.88 13.6341 45.1723 13.4235 45.4116 13.1595L46.3487 13.9922C46.0066 14.4162 45.5708 14.7551 45.0755 14.9823C44.5803 15.2095 44.0391 15.3187 43.4946 15.3014C41.4704 15.3014 39.9095 13.8342 39.9095 11.6655C39.9095 9.65474 41.3232 8.01616 43.3205 8.01616C45.5428 8.01616 46.6673 9.76184 46.6673 11.7833C46.6673 11.9305 46.6539 12.0617 46.6405 12.2224H46.6432ZM45.0823 11.1514C44.9779 10.1206 44.3701 9.31471 43.3098 9.31471C42.3326 9.31471 41.6445 10.0671 41.4999 11.1514H45.0823ZM29.7702 15.1327H31.3766V8.16075H29.7702V15.1327ZM40.2308 8.20359H38.378V7.82072C38.378 7.09246 38.6966 6.74975 39.3044 6.74975C39.6253 6.75338 39.9432 6.81225 40.2442 6.92378V5.58508C39.8235 5.45687 39.3854 5.39455 38.9456 5.40033C37.5721 5.40033 36.8037 6.15269 36.8037 7.68685V8.19019H35.9175V8.20359H34.3967V7.82072C34.3967 7.09246 34.7153 6.74975 35.3231 6.74975C35.644 6.75317 35.962 6.81204 36.2629 6.92378V5.58508C35.8431 5.45685 35.4059 5.39453 34.967 5.40033C33.5908 5.40033 32.8251 6.15269 32.8251 7.68685V8.19019H31.9389V9.5289H32.8251V15.1354H34.4315V9.53693H36.8117V15.1434H38.4182V9.53693H40.2442L40.2308 8.20359ZM29.7032 7.07907H31.4221V5.5583H29.7032V7.07907Z" fill="var(--fill-0, white)"/>
<path id="Union_2" d="M17.3428 18.1354C17.9144 18.1337 18.4637 18.3594 18.8692 18.7624C19.2744 19.1653 19.5031 19.7124 19.5049 20.2839V20.2976C19.5033 20.578 19.4456 20.8553 19.335 21.113C19.2244 21.3707 19.0635 21.6041 18.8614 21.7985C18.6593 21.9929 18.42 22.1444 18.1582 22.2448C17.8964 22.3453 17.6163 22.3928 17.336 22.3835C17.0572 22.392 16.7795 22.3438 16.5196 22.2429C16.2596 22.1418 16.0221 21.9892 15.8223 21.7946C15.6226 21.6001 15.4643 21.3672 15.3565 21.1101C15.2486 20.8528 15.1932 20.5765 15.1944 20.2976C15.1926 19.7259 15.4184 19.1766 15.8213 18.7712C16.2242 18.366 16.7714 18.1373 17.3428 18.1354ZM23.0176 18.1979C23.3145 18.1823 23.6117 18.2305 23.8887 18.3386C24.1656 18.4466 24.4162 18.6125 24.624 18.8249L24.0567 19.4782C23.7835 19.1961 23.4102 19.0327 23.0176 19.0231C22.857 19.0265 22.6984 19.062 22.5518 19.1276C22.4053 19.1932 22.2736 19.2876 22.1641 19.405C22.0545 19.5225 21.9693 19.6613 21.9141 19.8122C21.8727 19.9254 21.8489 20.0439 21.8428 20.1638V20.2976C21.8334 20.4591 21.8567 20.6208 21.9112 20.7731C21.9656 20.9254 22.0496 21.0654 22.1592 21.1843C22.2688 21.3031 22.4015 21.3989 22.5489 21.4655C22.6963 21.5321 22.8559 21.5683 23.0176 21.572C23.2192 21.5704 23.4184 21.527 23.6026 21.445C23.7868 21.363 23.9527 21.2442 24.0889 21.0954L24.6563 21.6706C24.4495 21.9083 24.1913 22.0961 23.9014 22.2194C23.6117 22.3427 23.2979 22.3991 22.9834 22.3835C22.7086 22.3878 22.4354 22.3364 22.1807 22.2331C21.926 22.1298 21.6941 21.9765 21.5 21.7819C21.3059 21.5873 21.1535 21.3552 21.0508 21.1003C20.9481 20.8453 20.8973 20.5724 20.9024 20.2976C20.8972 20.0191 20.9491 19.7421 21.0537 19.4841C21.1584 19.2262 21.3142 18.9917 21.5117 18.7956C21.7092 18.5997 21.9446 18.4461 22.2031 18.3434C22.462 18.2408 22.7393 18.1907 23.0176 18.1979ZM7.70608 18.2145C8.25276 18.2058 8.78547 18.3873 9.21291 18.7282L8.75002 19.4001C8.44694 19.1636 8.07906 19.0249 7.69534 19.0017C7.35263 19.0017 7.17288 19.157 7.17288 19.3552C7.17295 19.6228 7.34751 19.7083 8.04885 19.8903C8.87066 20.1045 9.33596 20.4023 9.33596 21.1091C9.32239 21.92 8.70723 22.3726 7.83205 22.3727C7.19825 22.3748 6.58557 22.1437 6.11038 21.7243L6.64553 21.0895C6.97707 21.3952 7.40772 21.5718 7.85842 21.5856C8.22234 21.5856 8.44215 21.4382 8.44241 21.2028V21.1892C8.44241 20.9643 8.30309 20.8485 7.626 20.6745C6.82278 20.4657 6.28713 20.2385 6.28713 19.4352C6.28717 18.699 6.87879 18.2145 7.70608 18.2145ZM12.1778 18.2145C12.7244 18.2058 13.2572 18.3873 13.6846 18.7282L13.2188 19.4001C12.9165 19.1642 12.5497 19.0255 12.167 19.0017C11.8243 19.0017 11.6309 19.157 11.6309 19.3552C11.631 19.6228 11.8053 19.7083 12.5039 19.8903C13.3286 20.1045 13.792 20.4022 13.792 21.1091C13.7758 21.9201 13.1598 22.3727 12.2871 22.3727C11.6532 22.3753 11.0404 22.1442 10.5655 21.7243L11.1006 21.0895C11.4305 21.396 11.8614 21.5729 12.3115 21.5856C12.6779 21.5855 12.8972 21.4381 12.8975 21.2028V21.1892C12.8975 20.9643 12.7585 20.8485 12.0948 20.6745C11.2755 20.4657 10.7559 20.2385 10.7559 19.4352C10.7559 18.699 11.3478 18.2145 12.1778 18.2145ZM44.336 18.2145C44.8817 18.2058 45.4135 18.3874 45.8399 18.7282L45.377 19.4001C45.0739 19.1636 44.706 19.0249 44.3223 19.0017C43.9823 19.0017 43.8028 19.157 43.8028 19.3552C43.8028 19.6228 43.9745 19.7083 44.6758 19.8903C45.5003 20.1045 45.9639 20.4023 45.9639 21.1091C45.9503 21.92 45.3342 22.3726 44.459 22.3727C43.826 22.3751 43.2142 22.1439 42.7403 21.7243L43.2754 21.0895C43.6053 21.396 44.0353 21.5728 44.4854 21.5856C44.8493 21.5856 45.072 21.4382 45.0723 21.2028V21.1892C45.0723 20.9643 44.9328 20.8485 44.253 20.6745C43.4363 20.4657 42.9141 20.2385 42.9141 19.4352C42.9141 18.699 43.506 18.2145 44.336 18.2145ZM41.3906 19.0602H39.2188V19.8825H41.1309V20.6852H39.2188V21.5368H41.4336V22.3405L38.3301 22.3083V18.2575H41.3906V19.0602ZM5.02053 22.3083H4.08596L3.71389 21.3981H2.00002L1.62795 22.3083H0.717797L2.45803 18.2224H3.2803L5.02053 22.3083ZM27.0957 22.3083H26.2041V18.2575H27.0957V22.3083ZM32.8653 22.3083H31.9336L31.5615 21.3981H29.8477L29.4756 22.3083H28.5655L30.3057 18.2224H31.128L32.8653 22.3083ZM36.8438 19.0788H35.6094V22.3083H34.7178V19.0788H33.4834V18.2575H36.8438V19.0788ZM17.336 19.0124C17.1724 19.0116 17.0102 19.0436 16.8594 19.1071C16.7084 19.1707 16.5719 19.2647 16.458 19.3825C16.3443 19.5002 16.2557 19.6398 16.1973 19.7927C16.1389 19.9457 16.1117 20.1095 16.1182 20.2731V20.2868C16.1128 20.4518 16.1409 20.6162 16.2002 20.7702C16.2594 20.924 16.3486 21.0646 16.4629 21.1833C16.5775 21.3021 16.7154 21.3968 16.8672 21.4616C17.0189 21.5264 17.1818 21.5605 17.3467 21.5612C17.5108 21.5621 17.674 21.5293 17.8252 21.4655C17.9763 21.4018 18.1128 21.3081 18.2266 21.1901C18.3405 21.072 18.4291 20.9315 18.4873 20.778C18.5454 20.6247 18.5723 20.4614 18.5655 20.2976V20.2868C18.5712 20.1217 18.5435 19.9567 18.4844 19.8024C18.4252 19.6484 18.3353 19.5081 18.2207 19.3893C18.1062 19.2705 17.9692 19.1757 17.8174 19.111C17.6654 19.0463 17.5011 19.0127 17.336 19.0124ZM2.32131 20.611H3.3926L2.85745 19.2966L2.32131 20.611ZM30.169 20.611H31.2403L30.7051 19.2966L30.169 20.611Z" fill="var(--fill-0, white)"/>
</g>
</svg>
